<svg width="18" height="24" viewBox="0 0 18 24" fill="none" xmlns="http://www.w3.org/2000/svg">
<path d="M11.5713 20.9032C11.5713 21.331 11.1877 21.6774 10.7141 21.6774H7.28558C6.812 21.6774 6.42843 21.331 6.42843 20.9032C6.42843 20.4755 6.812 20.129 7.28558 20.129H10.7141C11.1877 20.129 11.5713 20.4755 11.5713 20.9032ZM18 2.32258V21.6774C18 22.9577 16.8461 24 15.4286 24H2.57143C1.15392 24 0 22.9577 0 21.6774V2.32258C0 1.04225 1.15392 0 2.57143 0H15.4286C16.8461 0 18 1.04225 18 2.32258ZM16.2857 2.32258C16.2857 1.8958 15.9011 1.54839 15.4286 1.54839H2.57143C2.09892 1.54839 1.71429 1.8958 1.71429 2.32258V21.6774C1.71429 22.1042 2.09892 22.4516 2.57143 22.4516H15.4286C15.9011 22.4516 16.2857 22.1042 16.2857 21.6774V2.32258Z" fill="black"/>
</svg>
